<?xml version="1.0" standalone="no"?>
<!DOCTYPE svg PUBLIC "-//W3C//DTD SVG 20010904//EN"
 "http://www.w3.org/TR/2001/REC-SVG-20010904/DTD/svg10.dtd">
<svg version="1.0" xmlns="http://www.w3.org/2000/svg"
 width="544.000000pt" height="544.000000pt" viewBox="0 0 544.000000 544.000000"
 preserveAspectRatio="xMidYMid meet">
<metadata>
Created by potrace 1.11, written by Peter Selinger 2001-2013
</metadata>
<g transform="translate(0.000000,544.000000) scale(0.100000,-0.100000)"
fill="#000000" stroke="none">
<path d="M2676 3827 c-36 -77 -101 -259 -110 -309 -2 -13 -9 -41 -14 -63 -6
-22 -16 -76 -22 -120 -6 -44 -13 -96 -16 -115 -6 -42 -6 -320 0 -370 2 -19 7
-58 10 -87 9 -85 45 -235 81 -344 37 -109 103 -259 115 -259 11 0 86 170 119
270 33 102 65 241 76 330 4 30 9 66 11 80 6 45 6 344 -1 395 -21 169 -56 321
-102 448 -30 84 -89 214 -101 221 -4 2 -25 -32 -46 -77z"/>
<path d="M3879 3189 c-390 -140 -739 -447 -932 -822 -46 -87 -101 -227 -93
-234 6 -7 95 23 191 64 253 108 526 334 699 579 95 133 236 421 215 437 -2 2
-38 -9 -80 -24z"/>
<path d="M1515 3104 c135 -328 385 -619 695 -810 118 -73 361 -177 376 -161 6
5 -32 107 -70 190 -151 327 -463 641 -796 800 -85 40 -209 87 -233 87 -13 0
-7 -21 28 -106z"/>
<path d="M1725 2155 c-121 -22 -290 -79 -280 -95 7 -12 145 -76 210 -98 133
-44 215 -56 375 -57 176 0 221 5 340 39 97 27 160 53 160 64 0 5 -35 25 -77
45 -180 84 -325 115 -538 115 -66 -1 -152 -6 -190 -13z"/>
<path d="M3360 2164 c-199 -36 -323 -77 -431 -143 l-29 -18 67 -26 c75 -29
172 -55 242 -65 96 -14 351 -7 436 12 64 14 147 38 179 51 87 37 165 75 170
84 7 11 -127 64 -204 80 -30 6 -66 14 -80 17 -33 7 -318 14 -350 8z"/>
<path d="M2445 1859 c-74 -13 -188 -59 -264 -106 -74 -46 -197 -159 -221 -203
-12 -23 -12 -23 51 -16 205 20 410 135 534 299 l28 38 -44 -2 c-24 -2 -62 -6
-84 -10z"/>
<path d="M2891 1838 c70 -98 202 -199 329 -251 70 -29 184 -57 238 -57 40 0
36 10 -34 88 -89 100 -248 196 -379 228 -32 8 -134 24 -153 24 l-23 0 22 -32z"/>
</g>
</svg>
